<svg xmlns="http://www.w3.org/2000/svg" viewBox="0 0 193.91 18">
              <path class="vector-logo__brace" fill="#013475" d="M4.66,16.61a1.1,1.1,0,0,1-1-1.23v-5a1.48,1.48,0,0,0-.79-1.48,1.46,1.46,0,0,0,.79-1.47V2.6a1.09,1.09,0,0,1,1-1.21h1V0h-1A2.52,2.52,0,0,0,2.13,2.62V7.21C2.13,7.81.57,8.3,0,8.3V9.48c.57,0,2.13.49,2.13,1.1V15.4A2.5,2.5,0,0,0,4.66,18h1V16.61Z" transform="translate(0 0)"></path>
              <path class="vector-logo__letter" fill="#ffffff" d="M25.81,7.23a3.32,3.32,0,0,0-3.57-3.42h-4.8V14.73h1.92V10.65h1.9l2.42,4.08h2.21l-2.67-4.29A3.06,3.06,0,0,0,25.81,7.23ZM19.36,9V5.5H22A1.74,1.74,0,1,1,22,9Z" transform="translate(0 0)"></path>
              <polygon class="vector-logo__letter" fill="#ffffff" points="33.4 14.73 40.88 14.73 40.88 13.04 35.32 13.04 35.32 10.01 40.77 10.01 40.77 8.33 35.32 8.33 35.32 5.5 40.88 5.5 40.88 3.81 33.4 3.81 33.4 14.73"></polygon>
              <path class="vector-logo__letter" fill="#ffffff" d="M69.55,8.17c-1.29-.33-2.41-.61-2.41-1.46S67.86,5.35,69,5.35a4.43,4.43,0,0,1,3.16,1.24l1.1-1.42a5.7,5.7,0,0,0-4.09-1.52c-2.39,0-4,1.39-4,3.19,0,2.31,2.1,2.83,3.88,3.27,1.32.35,2.49.64,2.49,1.62,0,.72-.63,1.49-2.2,1.49a4.7,4.7,0,0,1-3.45-1.5l-1.06,1.47a5.83,5.83,0,0,0,4.43,1.73c3,0,4.22-1.55,4.22-3.37C73.49,9.18,71.35,8.62,69.55,8.17Z" transform="translate(0 0)"></path>
              <path class="vector-logo__letter" fill="#ffffff" d="M85.89,3.63a5.41,5.41,0,0,0-5.58,5.65,5.58,5.58,0,1,0,11.16,0A5.42,5.42,0,0,0,85.89,3.63Zm0,9.59a3.62,3.62,0,0,1-3.62-3.94c0-2.26,1.41-3.95,3.62-3.95A3.63,3.63,0,0,1,89.5,9.28,3.63,3.63,0,0,1,85.89,13.22Z" transform="translate(0 0)"></path>
              <polygon class="vector-logo__letter" fill="#ffffff" points="106.54 11.55 100.96 3.81 99 3.81 99 14.73 100.91 14.73 100.91 6.77 106.61 14.73 108.46 14.73 108.46 3.81 106.54 3.81 106.54 11.55"></polygon>
              <path class="vector-logo__letter" fill="#ffffff" d="M142.62,3.81h-4.8V14.73h1.92V10.65h2.88a3.33,3.33,0,0,0,3.56-3.42A3.32,3.32,0,0,0,142.62,3.81ZM142.35,9h-2.61V5.5h2.61a1.74,1.74,0,1,1,0,3.47Z" transform="translate(0 0)"></path>
              <path class="vector-logo__letter" fill="#ffffff" d="M158.09,3.81h-4.8V14.73h1.92V10.65h2.88a3.33,3.33,0,0,0,3.56-3.42A3.32,3.32,0,0,0,158.09,3.81ZM157.82,9h-2.61V5.5h2.61a1.74,1.74,0,1,1,0,3.47Z" transform="translate(0 0)"></path>
              <path class="vector-logo__letter" fill="#ffffff" d="M172.92,8.17c-1.29-.33-2.4-.61-2.4-1.46s.72-1.36,1.85-1.36a4.43,4.43,0,0,1,3.15,1.24l1.1-1.42a5.68,5.68,0,0,0-4.09-1.52c-2.39,0-4,1.39-4,3.19,0,2.31,2.1,2.83,3.88,3.27,1.33.35,2.49.64,2.49,1.62,0,.72-.62,1.49-2.19,1.49a4.73,4.73,0,0,1-3.46-1.5l-1.06,1.47a5.83,5.83,0,0,0,4.43,1.73c3,0,4.23-1.55,4.23-3.37C176.87,9.18,174.72,8.62,172.92,8.17Z" transform="translate(0 0)"></path>
              <path class="vector-logo__brace" fill="#013475" d="M191.62,15.4V10.78c0-.6,1.72-1.09,2.29-1.09V8.51c-.57,0-2.29-.49-2.29-1.1V2.62A2.52,2.52,0,0,0,189.09,0h-1V1.39h1a1.11,1.11,0,0,1,1,1.21v5a1.45,1.45,0,0,0,.75,1.47,1.44,1.44,0,0,0-.75,1.47v4.81a1.12,1.12,0,0,1-1,1.23h-1V18h1A2.5,2.5,0,0,0,191.62,15.4Z" transform="translate(0 0)"></path>
              <polygon class="vector-logo__letter" fill="#ffffff" points="51.87 3.81 47.58 14.73 49.68 14.73 53.07 5.43 56.45 14.73 58.55 14.73 54.26 3.81 51.87 3.81"></polygon>
              <polygon class="vector-logo__letter" fill="#ffffff" points="124.26 3.81 119.98 14.73 122.07 14.73 125.46 5.43 128.84 14.73 130.94 14.73 126.65 3.81 124.26 3.81"></polygon>
            </svg>